<svg width="30" height="31" viewBox="0 0 30 31" fill="none" xmlns="http://www.w3.org/2000/svg">
<path d="M8.18182 13.9315H0V16.7177H8.18182V13.9315ZM11.1409 9.41766L8.25 6.4642L6.32727 8.42853L9.21818 11.382L11.1409 9.41766ZM16.3636 0H13.6364V8.35887H16.3636V0ZM23.6727 8.42853L21.75 6.4642L18.8591 9.41766L20.7818 11.382L23.6727 8.42853ZM21.8182 13.9315V16.7177H30V13.9315H21.8182ZM15 11.1452C12.7364 11.1452 10.9091 13.012 10.9091 15.3246C10.9091 17.6372 12.7364 19.504 15 19.504C17.2636 19.504 19.0909 17.6372 19.0909 15.3246C19.0909 13.012 17.2636 11.1452 15 11.1452ZM18.8591 21.2315L21.75 24.185L23.6727 22.2207L20.7818 19.2672L18.8591 21.2315ZM6.32727 22.2207L8.25 24.185L11.1409 21.2315L9.21818 19.2672L6.32727 22.2207ZM13.6364 30.6492H16.3636V22.2903H13.6364V30.6492Z" fill="#ABAEE9"/>
</svg>
