<svg width="50" height="43" viewBox="0 0 50 43" fill="none" xmlns="http://www.w3.org/2000/svg">
<path d="M0.0546875 17.3141L50.0006 0L24.2429 42.2477L0.0546875 17.3141Z" fill="#ECECEC" stroke="#C66E6E" stroke-width="0.00053244"/>
<path fill-rule="evenodd" clip-rule="evenodd" d="M10.5137 33.3217L17.6721 28.5186L15.7511 24.5038L10.634 28.165L10.5137 33.3217Z" fill="#666666" stroke="#C66E6E" stroke-width="0.000282222"/>
<path d="M0 17.3668L14.3072 21.4874L24.2405 42.2482L0 17.3668Z" fill="#CCCCCC" stroke="#C66E6E" stroke-width="0.000205147"/>
<path d="M49.9962 0L6.86328 24.3181L10.5112 33.3218L10.6315 28.1649L49.9963 0H49.9962Z" fill="#999999" stroke="#C66E6E" stroke-width="0.000226653"/>
<path d="M0.0546875 17.3141L50.0006 0L24.2429 42.2477L0.0546875 17.3141Z" fill="#ECECEC" stroke="#C66E6E" stroke-width="0.00053244"/>
<path fill-rule="evenodd" clip-rule="evenodd" d="M10.5137 33.3217L17.6721 28.5186L15.7511 24.5038L10.634 28.165L10.5137 33.3217Z" fill="#666666" stroke="#C66E6E" stroke-width="0.000282222"/>
<path d="M0 17.3668L14.3072 21.4874L24.2405 42.2482L0 17.3668Z" fill="#CCCCCC" stroke="#C66E6E" stroke-width="0.000205147"/>
<path d="M49.9962 0L6.86328 24.3181L10.5112 33.3218L10.6315 28.1649L49.9963 0H49.9962Z" fill="#999999" stroke="#C66E6E" stroke-width="0.000226653"/>
<path d="M0.0546875 17.3141L50.0006 0L24.2429 42.2477L0.0546875 17.3141Z" fill="#ECECEC" stroke="#C66E6E" stroke-width="0.00053244"/>
<path fill-rule="evenodd" clip-rule="evenodd" d="M10.5137 33.3217L17.6721 28.5186L15.7511 24.5038L10.634 28.165L10.5137 33.3217Z" fill="#666666" stroke="#C66E6E" stroke-width="0.000282222"/>
<path d="M0 17.3668L14.3072 21.4874L24.2405 42.2482L0 17.3668Z" fill="#CCCCCC" stroke="#C66E6E" stroke-width="0.000205147"/>
<path d="M49.9962 0L6.86328 24.3181L10.5112 33.3218L10.6315 28.1649L49.9963 0H49.9962Z" fill="#999999" stroke="#8A6E6E" stroke-width="0.000226653"/>
<path d="M0.0546875 17.3141L50.0006 0L24.2429 42.2477L0.0546875 17.3141Z" fill="#ECECEC" stroke="#8A6E6E" stroke-width="0.00053244"/>
<path fill-rule="evenodd" clip-rule="evenodd" d="M10.5137 33.3217L17.6721 28.5186L15.7511 24.5038L10.634 28.165L10.5137 33.3217Z" fill="#666666" stroke="#8A6E6E" stroke-width="0.000282222"/>
<path d="M0 17.3668L14.3072 21.4874L24.2405 42.2482L0 17.3668Z" fill="#CCCCCC" stroke="#8A6E6E" stroke-width="0.000205147"/>
<path d="M49.9962 0L6.86328 24.3181L10.5112 33.3218L10.6315 28.1649L49.9963 0H49.9962Z" fill="#999999" stroke="#8A6E6E" stroke-width="0.000226653"/>
<path d="M0.0546875 17.3141L50.0006 0L24.2429 42.2477L0.0546875 17.3141Z" fill="#ECECEC" stroke="#8A6E6E" stroke-width="0.00053244"/>
<path fill-rule="evenodd" clip-rule="evenodd" d="M10.5137 33.3217L17.6721 28.5186L15.7511 24.5038L10.634 28.165L10.5137 33.3217Z" fill="#060449" stroke="#8A6E6E" stroke-width="0.000282222"/>
<path d="M0 17.3668L14.3072 21.4874L24.2405 42.2482L0 17.3668Z" fill="#060449" stroke="#8A6E6E" stroke-width="0.000205147"/>
<path d="M49.9962 0L6.86328 24.3181L10.5112 33.3218L10.6315 28.1649L49.9963 0H49.9962Z" fill="#060449" stroke="#8A6E6E" stroke-width="0.000226653"/>
<path d="M0.0546875 17.3141L50.0006 0L24.2429 42.2477L0.0546875 17.3141Z" fill="#44CA92" stroke="#8A6E6E" stroke-width="0.00053244"/>
<path d="M0 17.3668L14.3072 21.4874L24.2405 42.2482L0 17.3668Z" fill="#44CA92" fill-opacity="0.48" stroke="#8A6E6E" stroke-width="0.000205147"/>
<path d="M49.9962 0L6.86328 24.3181L10.5112 33.3218L10.6315 28.1649L49.9963 0H49.9962Z" fill="black" stroke="#8A6E6E" stroke-width="0.000226653"/>
</svg>
